<svg xmlns="http://www.w3.org/2000/svg" style="display: none">
  <symbol
    id="i-arrow-down"
    viewBox="0 0 24 24"
    fill="none"
    stroke="currentColor"
    stroke-width="1.5"
    stroke-linecap="round"
    stroke-linejoin="round"
  >
    <path d="M12 5v14" />
    <path d="m19 12-7 7-7-7" />
  </symbol>

  <symbol
    id="i-pencil"
    viewBox="0 0 24 24"
    fill="none"
    stroke="currentColor"
    stroke-width="1.5"
    stroke-linecap="round"
    stroke-linejoin="round"
  >
    <path d="M12 20h9" />
    <path d="M16.5 3.5a2.121 2.121 0 0 1 3 3L7 19l-4 1 1-4Z" />
  </symbol>

  <symbol
    id="i-trash"
    viewBox="0 0 24 24"
    fill="none"
    stroke="currentColor"
    stroke-width="1.5"
    stroke-linecap="round"
    stroke-linejoin="round"
  >
    <path d="M3 6h18" />
    <path d="M8 6V4a1 1 0 0 1 1-1h6a1 1 0 0 1 1 1v2" />
    <path d="M19 6l-1 14a2 2 0 0 1-2 2H8a2 2 0 0 1-2-2L5 6" />
  </symbol>
</svg>
